<?xml version="1.0" encoding="utf-8" ?>
<svg xmlns="http://www.w3.org/2000/svg" xmlns:xlink="http://www.w3.org/1999/xlink" width="294" height="305">
	<path fill="#636362" d="M125.793 33.8071C126.571 33.7861 127.468 33.9046 128.233 34.0452C129.07 34.1991 130.491 35.4853 130.93 36.2109C131.667 37.4277 132.056 38.7832 131.711 40.1953C131.172 42.3992 129.673 44.4314 128.504 46.3469L125.548 51.7726C122.494 57.7703 120.244 64.1424 118.589 70.6578C112.424 94.9275 116.696 120.041 129.529 141.375C141.985 162.08 163.089 176.72 186.378 182.501C202.193 186.426 219.77 185.623 235.25 180.741C238.928 179.58 242.584 178.392 246.055 176.687C250 174.749 253.897 172.645 257.579 170.243C259.977 168.679 262.268 166.845 264.731 165.401C266.064 164.619 267.2 164.24 268.725 164.662C270.499 165.152 271.834 166.126 272.706 167.779C274.365 170.922 270.412 181.613 269.288 185.066C260.081 213.367 237.853 238.087 211.473 251.511C201.927 256.324 192.005 259.945 181.5 261.995C151.243 267.9 118.495 261.886 92.875 244.484C67.205 227.048 48.2029 199.798 42.4747 169.1C36.7891 138.63 43.021 106.319 60.6902 80.6611C73.4494 62.1334 90.1373 48.3471 110.671 39.1776C113.822 37.7705 116.941 36.6185 120.209 35.5098C122.064 34.8801 123.858 34.1649 125.793 33.8071Z"/>
</svg>
