<?xml version="1.0" encoding="utf-8" ?>
<svg xmlns="http://www.w3.org/2000/svg" xmlns:xlink="http://www.w3.org/1999/xlink" width="236" height="236">
	<path fill="#FEFEFE" d="M0 115.78L-0 -0L115.276 0L120.212 0L236 0L236 117.362L236 117.701L236 236L118.639 236L116.237 236L-0 236L0 119.728L0 115.78ZM116.739 59.1293C113.194 59.3553 109.615 59.5354 106.125 60.2443C94.4408 62.6177 82.6736 68.9264 74.7506 77.9257C64.0042 90.1321 58.1299 105.237 59.2213 121.625C59.9256 132.199 63.4211 142.463 69.4844 151.125C70.0805 151.977 70.5194 152.941 71.1571 153.762C71.7204 154.488 72.4752 155.062 73.0736 155.762C74.402 157.316 75.573 158.874 77.1313 160.219C80.1396 162.817 83.362 166.009 86.938 167.745C88.8086 168.653 90.4429 170.013 92.3531 170.918C97.0683 173.15 102.371 174.905 107.527 175.79C108.433 175.946 109.367 175.892 110.275 176.038C112.962 176.472 116.091 176.924 118.812 176.613C121.747 176.487 124.747 176.374 127.648 175.888C129.385 175.597 131.068 175.021 132.761 174.554C140.228 172.492 146.408 169.587 152.622 164.918C154.665 163.383 156.781 161.896 158.512 160.003C161.365 156.883 164.134 153.959 166.549 150.454C172.992 141.103 176.943 128.284 176.393 116.905C176.256 114.077 176.218 110.904 175.719 108.125C174.001 98.5487 170.233 89.8286 164.331 82.0764C162.65 79.8681 160.829 77.5849 158.759 75.7291C150.086 67.9525 139.817 61.7735 128.137 59.9101C124.393 59.3128 120.525 59.2661 116.739 59.1293ZM236 117.701C235.044 121.427 233.859 123.318 230.461 125.331C226.065 127.937 187.8 146.183 187.468 147.076C189.369 151.012 190.592 155.411 191.919 159.576L196.059 172L200.444 185.076C201.471 188.055 202.707 191.134 203.403 194.207C203.641 195.257 203.6 196.429 203.244 197.447C202.436 199.762 200.661 201.725 198.442 202.766C197.591 203.165 196.627 203.599 195.675 203.633C194.76 203.667 193.687 203.208 192.815 202.935C191.284 202.455 189.762 202.076 188.25 201.515L146.682 187.439C145.531 190.415 143.9 193.262 142.473 196.12L134.548 212L128.346 224.492C127.251 226.711 126.251 229.203 124.884 231.263C123.729 233.005 122.43 234.504 120.489 235.389C119.905 235.656 119.256 235.83 118.639 236L236 236L236 117.701ZM120.212 0C121.316 0.649148 122.485 1.25219 123.375 2.18606L123.538 2.3549C124.605 3.48328 125.477 5.35824 126.187 6.75166L130.056 14.5003L144.402 43.0245C144.838 43.8838 146.233 47.5906 146.853 47.9503L159.375 43.672L183.055 35.9002L191.561 33.1562C192.598 32.8458 193.628 32.3149 194.708 32.1846C196.403 31.9802 198.214 32.6715 199.679 33.473C201.732 34.5961 202.839 36.4575 203.422 38.653C203.662 39.5552 203.641 40.8006 203.439 41.718C202.911 44.1152 201.919 46.4948 201.151 48.827L196.245 63.4798L191.264 78.4459C190.122 81.9123 189.071 85.5262 187.566 88.8463L220.749 105.461L228.591 109.381C230.137 110.169 231.948 110.983 233.251 112.132C234.967 113.646 235.25 115.351 236 117.362L236 0L120.212 0ZM0 119.728L-0 236L116.237 236C114.693 235.192 112.848 234.278 111.76 232.875C110.234 230.907 109.207 228.604 108.121 226.382L103.836 217.691L88.6746 187.451L87.6074 187.989C86.0448 188.735 84.1313 189.156 82.4797 189.728L68.556 194.419L51.25 200.234C48.2481 201.243 45.1518 202.477 42.09 203.247C40.8339 203.563 39.5302 203.777 38.2764 203.327C36.0299 202.52 33.9816 201.285 32.9648 199.034C32.294 197.549 31.9336 196.088 32.178 194.452C32.4162 192.858 32.9965 191.456 33.4572 189.929L36.9763 179.397L47.2272 148.683C47.2948 148.477 47.8246 146.764 47.8018 146.721C47.726 146.576 45.5684 145.652 45.2779 145.5L18.9584 132.287L9.25 127.497C7.06435 126.393 4.76876 125.365 2.84931 123.82C1.43097 122.678 0.798601 121.312 0 119.728ZM0 115.78C0.127338 115.579 0.233812 115.406 0.308513 115.179L0.427947 114.814C1.06389 113.078 3.12946 111.457 4.63182 110.473C6.20157 109.444 8.00509 108.8 9.68872 107.981L20.2223 102.711C21.5658 102.06 22.81 101.214 24.1436 100.539L36.625 94.4161L47.2744 89.0915L47.9339 88.7257C47.9642 88.7086 48.0239 88.709 48.0245 88.6743C48.0361 88.0032 46.9667 86.1972 46.7367 85.402L36.9178 55.7894C35.3436 51.1638 33.4067 46.4584 32.3327 41.6914C32.0541 40.455 31.7688 38.9557 32.2258 37.7332C32.9954 35.6748 34.8688 33.6602 36.9022 32.8278C38.2687 32.2684 40.1641 31.9792 41.6188 32.2474C44.8875 32.8501 48.312 34.2576 51.4541 35.354L63.223 39.3132L82.375 45.776C84.4358 46.4993 86.6281 47.0399 88.6359 47.8821L88.7668 47.9385C90.1138 46.0922 90.8313 43.7084 91.8849 41.6821L104.353 16.8493L108.172 9.18806C109.078 7.3536 109.902 5.44506 111.065 3.75379C112.238 2.04662 113.315 0.827139 115.276 0L-0 -0L0 115.78Z"/>
	<path fill="#FEFEFE" d="M114.602 73.9057C117.588 73.6747 121.153 73.5809 124.114 74.0118C125.091 74.1539 126.033 74.5956 126.99 74.8345C129.405 75.4377 131.826 75.9418 134.196 76.7521C135.122 77.0689 136.011 77.6501 136.894 78.0801C140.006 79.5968 142.808 81.2479 145.574 83.3468C146.194 83.8174 146.675 84.4422 147.255 84.9544C153.562 90.5175 158.274 98.2606 160.525 106.381C161.168 108.702 161.44 111.21 161.779 113.596C163.164 123.369 159.972 135.274 154.051 143.142C147.68 151.607 138.605 158.233 128.215 160.757C125.661 161.378 122.984 161.607 120.383 161.969C114.411 162.185 107.855 161.464 102.262 159.265C100.475 158.563 98.8326 157.543 97.0521 156.821C95.6204 156.241 94.4089 155.124 93.1285 154.269C92.0135 153.525 90.622 152.833 89.625 151.954C79.7265 143.225 74.0479 131.906 73.5241 118.665C73.0667 107.102 77.8325 95.6974 85.6912 87.2951C92.8833 79.6056 104.029 74.2374 114.602 73.9057Z"/>
</svg>
